<?xml version="1.0" encoding="UTF-8" standalone="no"?>
<svg
   xmlns:dc="http://purl.org/dc/elements/1.1/"
   xmlns:cc="http://creativecommons.org/ns#"
   xmlns:rdf="http://www.w3.org/1999/02/22-rdf-syntax-ns#"
   xmlns:svg="http://www.w3.org/2000/svg"
   xmlns="http://www.w3.org/2000/svg"
   id="svg8"
   version="1.1"
   viewBox="0 0 52.916668 52.916668"
   height="52.916668mm"
   width="52.916668mm">
  <defs
     id="defs2" />
  <metadata
     id="metadata5">
    <rdf:RDF>
      <cc:Work
         rdf:about="">
        <dc:format>image/svg+xml</dc:format>
        <dc:type
           rdf:resource="http://purl.org/dc/dcmitype/StillImage" />
        <dc:title></dc:title>
      </cc:Work>
    </rdf:RDF>
  </metadata>
  <g
     transform="translate(63.186672,-125.36896)"
     id="layer1">
    <g
       id="g4904">
      <rect
         style="fill:#39bbc6;fill-opacity:1;stroke:none;stroke-width:0.72573483;stroke-miterlimit:4;stroke-dasharray:none;stroke-opacity:1"
         id="rect4900"
         width="52.916668"
         height="52.916668"
         x="-63.186672"
         y="125.36896"
         ry="12.532895" />
      <path
         style="fill:#ffffff;fill-opacity:1;stroke-width:0.07803691"
         d="m -38.248083,170.8456 c -0.128761,-0.0176 -0.550161,-0.0701 -0.936443,-0.11665 -5.654281,-0.68067 -10.827158,-4.10835 -13.745816,-9.10831 -2.025963,-3.47067 -2.895534,-7.67956 -2.405086,-11.6411 0.528071,-4.26543 2.516426,-8.25491 5.574981,-11.18573 2.715109,-2.60173 5.877444,-4.21685 9.678496,-4.94315 1.286958,-0.24591 3.901464,-0.34058 5.233724,-0.18952 5.165529,0.58571 9.887887,3.25719 12.907643,7.30197 1.935525,2.59251 3.101858,5.35905 3.602458,8.54504 0.199966,1.27265 0.200621,4.21781 0.0012,5.42356 -0.690355,4.17419 -2.413534,7.62025 -5.215555,10.43021 -1.480901,1.48512 -3.063454,2.61348 -5.019031,3.57861 -1.845266,0.91068 -3.536101,1.44261 -5.57964,1.75537 -0.771726,0.1181 -3.57915,0.22069 -4.096938,0.1497 z m 3.378171,-0.66193 c 3.354547,-0.36428 6.751033,-1.76664 9.341846,-3.8571 3.644299,-2.94049 6.028534,-7.18851 6.637886,-11.82679 0.178681,-1.3601 0.122042,-4.02403 -0.113595,-5.3428 -1.411184,-7.89784 -7.598218,-13.79145 -15.615592,-14.87503 -0.941864,-0.1273 -3.402825,-0.12865 -4.370067,-0.002 -4.208938,0.54935 -7.932217,2.41668 -10.831021,5.43205 -2.682813,2.7907 -4.348139,6.22169 -4.904303,10.10414 -0.155582,1.08609 -0.175528,3.45376 -0.03817,4.5307 1.057386,8.29015 7.384227,14.67398 15.656436,15.79747 0.956465,0.12989 3.211675,0.15107 4.236578,0.0398 z m -4.119522,-3.34826 c -1.673912,-0.25897 -3.05219,-0.70183 -4.537289,-1.45792 -4.062509,-2.06826 -6.869746,-5.78749 -7.790537,-10.32144 -0.710965,-3.50079 -0.02261,-7.36847 1.868658,-10.49957 2.099684,-3.47613 5.722076,-6.02003 9.717818,-6.82452 5.610757,-1.12966 11.381228,1.10099 14.809684,5.72488 1.894134,2.55459 2.860363,5.51394 2.864247,8.77259 0.0088,7.43073 -5.467442,13.67441 -12.841606,14.64108 -1.185894,0.15546 -2.957541,0.14026 -4.090975,-0.0351 z m 3.121477,-0.46988 c 4.060489,-0.30003 7.625488,-2.16832 10.14535,-5.31682 4.483209,-5.60165 4.029341,-13.71414 -1.053979,-18.83895 -2.201248,-2.21922 -5.100239,-3.63857 -8.284146,-4.05595 -4.690146,-0.61482 -9.535815,1.27923 -12.577715,4.9163 -4.252429,5.08444 -4.489825,12.24852 -0.58183,17.5583 0.690325,0.93794 2.305756,2.53136 3.222,3.1781 2.151068,1.51834 4.830601,2.44257 7.491545,2.58397 0.236061,0.0126 0.481877,0.0283 0.546258,0.035 0.06438,0.006 0.556013,-0.0203 1.092517,-0.0599 z m -1.989942,-0.91103 c -2.134457,-0.25379 -3.539606,-0.65527 -5.022995,-1.43516 -3.991043,-2.09829 -6.569164,-5.83887 -7.11738,-10.32654 -0.127775,-1.04597 -0.0539,-2.89717 0.158592,-3.97391 0.410181,-2.0785 1.26709,-3.96647 2.557863,-5.63554 0.662369,-0.85648 1.973187,-2.12076 2.769852,-2.67149 0.539848,-0.3732 2.055553,-1.26814 2.147766,-1.26814 0.02137,0 0.354822,-0.12642 0.741013,-0.28093 2.696312,-1.07878 6.085291,-1.17752 8.8955,-0.25919 8.386974,2.74074 11.830817,12.72136 6.911676,20.03077 -2.18817,3.25143 -5.698627,5.35087 -9.678194,5.78809 -0.714747,0.0785 -1.843962,0.0939 -2.363693,0.032 z m 0.0188,-1.25278 c 0.02073,-0.74905 0.136551,-0.99441 0.392366,-0.83123 0.112099,0.0715 0.134911,0.20745 0.133985,0.79855 l -0.0011,0.71238 h 0.71731 c 1.212118,0 2.39455,-0.1995 3.743574,-0.63164 0.601836,-0.19278 0.730631,-0.26082 0.697072,-0.36819 -0.178612,-0.57147 -0.354415,-1.45888 -0.314152,-1.58575 0.07762,-0.24453 0.364851,-0.15238 0.518711,0.16644 0.0725,0.15022 0.178867,0.50947 0.23638,0.79833 l 0.104574,0.52522 0.622025,-0.31888 c 0.873053,-0.44754 0.851717,-0.41878 0.591887,-0.79813 -0.508191,-0.74198 -0.671776,-1.2376 -0.438084,-1.32727 0.210638,-0.0809 0.350374,0.0387 0.659352,0.56402 0.522281,0.88797 0.443971,0.85453 1.001311,0.42772 l 0.485722,-0.37197 -0.299507,-0.31529 c -0.46058,-0.48485 -0.637305,-0.74832 -0.637305,-0.95011 0,-0.10151 0.01469,-0.18457 0.03264,-0.18457 0.01795,0 0.08681,-0.0207 0.153015,-0.0461 0.08111,-0.0312 0.29924,0.1407 0.668703,0.52674 l 0.548325,0.57295 0.471171,-0.48199 0.471173,-0.48198 -0.515886,-0.50336 c -0.39702,-0.38739 -0.509851,-0.54603 -0.48969,-0.68857 0.05054,-0.35726 0.335109,-0.27778 0.880482,0.24592 l 0.501177,0.48126 0.394099,-0.53424 c 0.216756,-0.29383 0.394631,-0.55833 0.395279,-0.58779 6.24e-4,-0.0295 -0.335005,-0.21281 -0.745894,-0.40745 -0.652446,-0.30907 -0.743876,-0.37642 -0.721841,-0.53171 0.04239,-0.29879 0.411349,-0.26965 1.121554,0.0886 l 0.620487,0.31297 0.132934,-0.17263 c 0.07311,-0.0949 0.237913,-0.40967 0.366222,-0.69938 l 0.23329,-0.52675 -0.561315,-0.004 c -0.308723,-0.002 -0.701781,-0.0295 -0.873463,-0.0599 -0.264824,-0.047 -0.312147,-0.0845 -0.312147,-0.24781 0,-0.24332 0.261972,-0.29326 1.236862,-0.23579 0.793726,0.0468 0.732005,0.0953 0.974121,-0.76594 0.110898,-0.3945 0.131365,-0.5612 0.06581,-0.53605 -0.313002,0.12012 -1.325868,0.29612 -1.582904,0.27506 -0.263336,-0.0216 -0.306905,-0.0525 -0.327754,-0.23279 -0.0284,-0.24551 -0.02881,-0.24534 1.038525,-0.42354 1.178889,-0.19684 1.09674,-0.12525 1.210621,-1.0549 0.133494,-1.08975 0.05928,-3.07011 -0.152139,-4.05992 -0.147652,-0.69127 -0.452442,-1.78375 -0.516715,-1.85209 -0.01488,-0.0158 -0.291782,0.0677 -0.615323,0.18576 -0.48017,0.17512 -0.609899,0.19657 -0.706061,0.11678 -0.143028,-0.11871 -0.153272,-0.34448 -0.02026,-0.44659 0.05365,-0.0412 0.317026,-0.15512 0.585277,-0.25317 0.268252,-0.0981 0.487731,-0.21355 0.487731,-0.25663 0,-0.12145 -0.794993,-1.61249 -0.911152,-1.70889 -0.07871,-0.0653 -0.20062,-0.0108 -0.51298,0.22948 -0.594352,0.45717 -0.81271,0.54391 -0.970918,0.38571 -0.113582,-0.11358 -0.114353,-0.14431 -0.0077,-0.30707 0.06517,-0.0995 0.33397,-0.33777 0.597318,-0.52954 0.263349,-0.19178 0.478815,-0.37357 0.478815,-0.40399 0,-0.0668 -0.895439,-1.20153 -0.998256,-1.26508 -0.03987,-0.0246 -0.235388,0.16495 -0.434468,0.4213 -0.270807,0.34872 -0.411114,0.4661 -0.557136,0.4661 -0.304564,0 -0.248178,-0.29464 0.155992,-0.81514 0.193143,-0.24873 0.351167,-0.47986 0.351167,-0.51364 0,-0.0687 -0.688428,-0.70211 -1.019005,-0.93751 l -0.214315,-0.15261 -0.147744,0.25351 c -0.08126,0.13941 -0.194491,0.36806 -0.251625,0.5081 -0.06204,0.15204 -0.176709,0.27289 -0.284658,0.29998 -0.430089,0.10795 -0.456753,-0.22332 -0.06971,-0.86606 0.151806,-0.2521 0.261621,-0.49587 0.244032,-0.5417 -0.03439,-0.0896 -1.557111,-0.9807 -1.675849,-0.9807 -0.03928,0 -0.09005,0.23204 -0.11281,0.51565 -0.04695,0.58487 -0.201458,0.82982 -0.430154,0.68197 -0.10897,-0.0704 -0.131785,-0.18732 -0.117955,-0.60418 0.0095,-0.28425 0.05322,-0.58423 0.09731,-0.66661 0.07229,-0.13507 0.0208,-0.17233 -0.524386,-0.37938 -0.3325,-0.12629 -0.699086,-0.25186 -0.814636,-0.27907 l -0.210091,-0.0495 0.04567,0.54468 c 0.04886,0.58277 -0.02665,0.78266 -0.295606,0.78266 -0.203717,0 -0.277416,-0.19006 -0.330242,-0.85166 -0.02541,-0.31818 -0.08577,-0.60298 -0.134137,-0.63287 -0.105166,-0.0651 -1.406228,-0.25377 -1.449662,-0.21033 -0.01666,0.0167 0.03992,0.30475 0.125705,0.6402 0.158025,0.61788 0.129187,0.82054 -0.116759,0.82054 -0.168514,0 -0.268672,-0.19171 -0.430297,-0.82365 -0.08605,-0.33645 -0.200015,-0.64122 -0.253262,-0.67727 -0.108904,-0.0738 -1.355448,-0.0153 -2.242825,0.10517 -1.146176,0.15561 -3.355588,0.81494 -3.355588,1.00138 0,0.0904 0.218549,0.70387 0.353408,0.99199 0.139037,0.29704 0.08008,0.49506 -0.147155,0.49424 -0.193241,-7e-4 -0.453322,-0.40435 -0.591744,-0.9184 -0.04881,-0.18128 -0.125161,-0.32958 -0.169668,-0.32958 -0.153013,0 -1.161652,0.63125 -1.161652,0.72702 0,0.0527 0.09996,0.21795 0.222132,0.36723 0.370578,0.45277 0.436881,0.62129 0.298776,0.75939 -0.167226,0.16722 -0.30664,0.0883 -0.681481,-0.38594 -0.180077,-0.22781 -0.356541,-0.4142 -0.392143,-0.4142 -0.08958,0 -1.164532,0.88448 -1.16224,0.9563 10e-4,0.032 0.227173,0.21172 0.502556,0.39938 0.558737,0.38076 0.637275,0.4959 0.459511,0.67367 -0.165712,0.16571 -0.363165,0.0945 -0.920571,-0.3321 l -0.463886,-0.35501 -0.461262,0.49074 -0.461265,0.49074 0.452532,0.2428 c 0.569532,0.30559 0.986734,0.68994 0.924615,0.85181 -0.09411,0.24526 -0.29535,0.20562 -0.989179,-0.19481 l -0.704528,-0.40661 -0.168466,0.21128 c -0.310796,0.38978 -0.705394,1.09563 -0.628328,1.12397 0.04196,0.0154 0.322104,0.15855 0.622546,0.31806 0.452084,0.24002 0.54626,0.32348 0.54626,0.48406 0,0.2867 -0.190517,0.28164 -0.896997,-0.0238 l -0.624977,-0.2702 -0.163333,0.36213 c -0.149362,0.33115 -0.382672,0.93473 -0.382672,0.98997 0,0.0126 0.184363,0.0832 0.409694,0.15684 0.626836,0.20487 0.838896,0.33313 0.838896,0.50738 0,0.0861 -0.0582,0.17886 -0.129313,0.20615 -0.110164,0.0423 -0.849952,-0.11214 -1.22291,-0.25525 -0.0895,-0.0343 -0.151235,0.11042 -0.278789,0.65373 -0.09011,0.38382 -0.163836,0.71985 -0.163836,0.74672 0,0.0269 0.332372,0.0488 0.738605,0.0488 0.666363,0 0.747036,0.0158 0.824803,0.16106 0.162668,0.30395 -0.01904,0.3852 -0.861529,0.3852 -0.723958,0 -0.764045,0.009 -0.808767,0.17557 -0.113351,0.42298 -0.04738,2.70675 0.103466,3.58195 0.158358,0.91877 0.620085,2.49462 0.805008,2.74745 0.10181,0.1392 0.125058,0.13536 0.584645,-0.0967 0.486961,-0.24582 0.670621,-0.25254 0.7569,-0.0277 0.06153,0.16035 -0.197616,0.41668 -0.674141,0.66677 l -0.364878,0.19151 0.357824,0.63356 c 0.196802,0.34845 0.383511,0.63356 0.414909,0.63356 0.0314,0 0.227712,-0.14148 0.436257,-0.31439 0.434192,-0.36 0.678455,-0.38199 0.715229,-0.0644 0.01915,0.16537 -0.05465,0.27413 -0.370638,0.54626 -0.217,0.18688 -0.394563,0.36798 -0.394583,0.40247 -2.2e-5,0.0345 0.200554,0.31095 0.445724,0.6144 l 0.445762,0.55172 0.120005,-0.1845 c 0.308484,-0.47428 0.65289,-0.77908 0.853839,-0.75564 0.317224,0.037 0.279918,0.23731 -0.14822,0.79591 -0.218656,0.28529 -0.378577,0.54939 -0.35538,0.58693 0.0232,0.0375 0.246353,0.24513 0.495901,0.46132 l 0.453721,0.39306 0.367889,-0.50727 c 0.383836,-0.52926 0.59836,-0.6191 0.781299,-0.32718 0.06488,0.10355 0.01382,0.22778 -0.245651,0.59768 -0.375669,0.53556 -0.394817,0.635 -0.151979,0.78934 0.783536,0.498 1.180544,0.7117 1.263201,0.67999 0.05337,-0.0204 0.242304,-0.31646 0.419848,-0.65772 0.357363,-0.6869 0.479672,-0.82476 0.667676,-0.75263 0.253747,0.0974 0.162456,0.41801 -0.479963,1.68572 -0.04132,0.0816 0.328472,0.25238 1.212676,0.56014 l 0.798898,0.27808 v -0.28488 c 0,-0.41971 0.236202,-1.18819 0.390599,-1.27082 0.08979,-0.0481 0.181395,-0.0372 0.277237,0.0329 0.138433,0.10118 0.138541,0.12614 0.0033,0.75783 -0.07691,0.35925 -0.172484,0.69297 -0.212387,0.74161 -0.109225,0.13314 -0.102155,0.13489 1.492172,0.36892 0.107306,0.0157 0.212651,0.0332 0.234111,0.0388 0.02146,0.005 0.04747,-0.29528 0.05781,-0.66869 z m 2.380843,-0.26451 c -0.279547,-0.29083 0.01354,-0.53849 0.63724,-0.53849 0.183943,0 0.453809,-0.0397 0.599705,-0.0883 0.670133,-0.22303 0.570343,-0.52819 -0.252895,-0.77337 -0.305169,-0.0909 -0.638254,-0.24864 -0.740188,-0.35058 -0.221994,-0.22199 -0.245825,-0.62663 -0.05997,-1.01829 0.314445,-0.66265 1.435376,-0.83509 1.435376,-0.22082 0,0.22318 -0.222169,0.3619 -0.410674,0.2564 -0.181713,-0.10173 -0.434336,0.0426 -0.534109,0.30498 -0.09486,0.24952 0.02201,0.36318 0.457509,0.44489 0.523205,0.0982 0.869375,0.33175 1.053632,0.71101 l 0.171428,0.35285 -0.154292,0.28448 c -0.223233,0.4116 -0.727139,0.6467 -1.493339,0.69675 -0.443954,0.029 -0.638645,0.0121 -0.709421,-0.0615 z m -4.847499,-6.86422 -0.262831,-0.16024 0.03881,-1.22463 c 0.05626,-1.77527 0.379893,-2.81724 1.297304,-4.17678 1.164961,-1.72641 2.473474,-2.91816 4.106005,-3.73966 0.767186,-0.38605 1.299534,-0.5266 1.99442,-0.5266 0.807703,0 0.815706,0.0118 0.811224,1.20203 -0.0031,0.8214 -0.03217,1.03012 -0.223936,1.6073 -0.554405,1.66868 -1.534989,3.21319 -2.928591,4.61283 -1.334452,1.34022 -2.559078,2.13173 -3.78609,2.44704 -0.605994,0.15573 -0.731251,0.15078 -1.046313,-0.0413 z m 1.171301,-0.60993 c 0.940926,-0.32373 2.147568,-1.10734 3.056738,-1.9851 0.534931,-0.51644 0.577725,-0.5811 0.541858,-0.81872 -0.02873,-0.19034 0.0032,-0.30287 0.121788,-0.4292 0.20358,-0.21686 0.478604,-0.81834 0.480849,-1.05163 0.0045,-0.47439 -0.427627,-1.08155 -0.96741,-1.35909 -0.243973,-0.12544 -0.38592,-0.14661 -0.70197,-0.10474 -0.368133,0.0488 -1.151243,0.42001 -1.26107,0.59772 -0.02645,0.0428 -0.145764,0.0563 -0.265136,0.0301 -0.191507,-0.0421 -0.249298,-0.003 -0.491284,0.32708 -0.888405,1.21401 -1.383815,2.78898 -1.383815,4.39931 v 0.54061 h 0.221894 c 0.122041,0 0.413442,-0.0659 0.647558,-0.14645 z m 2.053703,-3.04368 c -0.704913,-0.32019 -0.928777,-0.95909 -0.561255,-1.60181 0.226771,-0.39657 0.50132,-0.59375 0.901424,-0.64742 0.465062,-0.0624 0.753026,0.0871 1.027541,0.53318 0.253482,0.41197 0.287867,0.69363 0.143502,1.17548 -0.190929,0.63726 -0.810465,0.85888 -1.511212,0.54057 z m -10.751047,1.87987 c -0.18824,-0.208 -1.237315,-3.2083 -1.182353,-3.38147 0.05323,-0.16769 0.381599,-0.20122 0.480106,-0.049 0.03472,0.0537 0.258293,0.63419 0.496822,1.29006 l 0.433688,1.19251 0.139465,-0.45116 c 0.30627,-0.99077 0.52124,-1.04189 1.197909,-0.28488 l 0.462531,0.51744 0.04801,-1.0623 c 0.02641,-0.58426 0.08594,-1.13315 0.132297,-1.21977 0.09323,-0.1742 0.43064,-0.21559 0.488594,-0.0599 0.05413,0.14539 -0.065,2.88551 -0.132186,3.04047 -0.07035,0.16222 -0.302269,0.24503 -0.505582,0.1805 -0.08245,-0.0261 -0.350658,-0.29293 -0.595999,-0.59281 -0.24534,-0.29989 -0.455576,-0.53543 -0.467192,-0.52344 -0.01161,0.0119 -0.111944,0.33564 -0.222953,0.71925 -0.111009,0.3836 -0.245927,0.72545 -0.299816,0.75965 -0.160412,0.10184 -0.338831,0.0736 -0.473347,-0.0751 z m 20.744157,-1.28447 c -0.102864,-0.2301 -0.558832,-2.18222 -0.642531,-2.75082 -0.05009,-0.34026 0.207766,-0.54051 1.020365,-0.79244 0.75106,-0.23284 0.947638,-0.20436 0.947638,0.13731 0,0.16548 -0.07666,0.2109 -0.687663,0.40738 l -0.687662,0.22114 0.05297,0.24743 c 0.02914,0.13608 0.06509,0.26071 0.07989,0.27694 0.01481,0.0162 0.195062,-0.0146 0.400578,-0.0686 0.971085,-0.25508 1.271089,-0.23708 1.271089,0.0762 0,0.19817 -0.08336,0.24158 -0.842115,0.43859 -0.355862,0.0924 -0.660189,0.18117 -0.676281,0.19728 -0.01609,0.0161 0.03148,0.29268 0.105736,0.61458 0.156471,0.6784 0.157458,0.67874 0.991077,0.34525 0.595169,-0.23811 0.763909,-0.22518 0.797054,0.0611 0.02065,0.17829 -0.02582,0.23548 -0.308394,0.37964 -0.497178,0.25364 -1.150485,0.46263 -1.446202,0.46263 -0.220506,0 -0.280194,-0.0403 -0.375548,-0.25362 z m -12.396935,-10.81426 c -0.07104,-0.0785 -0.129294,-0.21018 -0.129471,-0.29263 -1.55e-4,-0.0825 -0.104692,-0.65653 -0.232268,-1.2757 -0.240207,-1.16584 -0.230888,-1.3324 0.07456,-1.3324 0.07425,0 0.295472,0.20192 0.491598,0.44872 0.196125,0.24678 0.565798,0.67696 0.821494,0.95595 l 0.464904,0.50724 -0.144311,-0.74136 c -0.194861,-1.00103 -0.194389,-1.45292 0.0016,-1.55783 0.239498,-0.12818 0.366323,0.0767 0.46677,0.75397 0.04966,0.33482 0.173603,0.99191 0.275433,1.4602 0.101832,0.46828 0.168137,0.89575 0.147351,0.94992 -0.130746,0.34071 -0.709548,0.0518 -1.402292,-0.70004 l -0.552309,-0.59939 0.108396,0.62766 c 0.0785,0.45455 0.08546,0.67052 0.02525,0.78303 -0.103617,0.19363 -0.248964,0.19803 -0.416727,0.0127 z"
         id="path4898" />
    </g>
  </g>
</svg>
