<?xml version="1.0" encoding="UTF-8" standalone="no"?>
<svg
   xmlns:dc="http://purl.org/dc/elements/1.1/"
   xmlns:cc="http://creativecommons.org/ns#"
   xmlns:rdf="http://www.w3.org/1999/02/22-rdf-syntax-ns#"
   xmlns:svg="http://www.w3.org/2000/svg"
   xmlns="http://www.w3.org/2000/svg"
   xmlns:sodipodi="http://sodipodi.sourceforge.net/DTD/sodipodi-0.dtd"
   xmlns:inkscape="http://www.inkscape.org/namespaces/inkscape"
   id="svg8"
   version="1.1"
   viewBox="0 0 52.916668 52.916668"
   height="52.916668mm"
   width="52.916668mm"
   sodipodi:docname="compass-icon.svg"
   inkscape:export-filename="/Users/solderneer/Desktop/compass-icon.png"
   inkscape:export-xdpi="100"
   inkscape:export-ydpi="100"
   inkscape:version="0.92.2 5c3e80d, 2017-08-06">
  <sodipodi:namedview
     pagecolor="#ffffff"
     bordercolor="#666666"
     borderopacity="1"
     objecttolerance="10"
     gridtolerance="10"
     guidetolerance="10"
     inkscape:pageopacity="0"
     inkscape:pageshadow="2"
     inkscape:window-width="1440"
     inkscape:window-height="856"
     id="namedview9"
     showgrid="false"
     inkscape:zoom="1.18"
     inkscape:cx="100"
     inkscape:cy="100"
     inkscape:window-x="0"
     inkscape:window-y="0"
     inkscape:window-maximized="1"
     inkscape:current-layer="g4904" />
  <defs
     id="defs2" />
  <metadata
     id="metadata5">
    <rdf:RDF>
      <cc:Work
         rdf:about="">
        <dc:format>image/svg+xml</dc:format>
        <dc:type
           rdf:resource="http://purl.org/dc/dcmitype/StillImage" />
        <dc:title />
      </cc:Work>
    </rdf:RDF>
  </metadata>
  <g
     transform="translate(63.186672,-125.36896)"
     id="layer1">
    <g
       id="g4904">
      <rect
         style="fill:#39bbc6;fill-opacity:1;stroke:none;stroke-width:0.72573483;stroke-miterlimit:4;stroke-dasharray:none;stroke-opacity:1"
         id="rect4900"
         width="52.916668"
         height="52.916668"
         x="-63.186672"
         y="125.36896"
         ry="12.532895" />
      <path
         style="fill:#ffffff;fill-opacity:1;stroke-width:0.09024008"
         d="m -38.470152,173.53263 c -0.148896,-0.0204 -0.636193,-0.081 -1.08288,-0.13489 -6.538479,-0.78712 -12.520275,-4.75081 -15.895343,-10.53264 -2.342776,-4.0134 -3.348328,-8.88047 -2.781186,-13.4615 0.61065,-4.93245 2.909937,-9.54578 6.446779,-12.93492 3.139689,-3.00858 6.796539,-4.87627 11.191988,-5.71614 1.488208,-0.28436 4.511563,-0.39384 6.052157,-0.21916 5.973298,0.67731 11.434124,3.76654 14.926098,8.44382 2.238196,2.99793 3.586917,6.19709 4.1658,9.8813 0.231236,1.47166 0.231993,4.87738 0.0014,6.27168 -0.79831,4.82693 -2.790954,8.81187 -6.031147,12.06125 -1.712478,1.71735 -3.542506,3.02217 -5.80389,4.13821 -2.133823,1.0531 -4.089066,1.66821 -6.452166,2.02988 -0.892406,0.13656 -4.138847,0.25519 -4.737604,0.17311 z m 3.906439,-0.76545 c 3.87912,-0.42124 7.806737,-2.04289 10.802694,-4.46025 4.214183,-3.40032 6.971256,-8.31263 7.675897,-13.67623 0.206623,-1.57279 0.141127,-4.6533 -0.131358,-6.17828 -1.631861,-9.13289 -8.786404,-15.94812 -18.057509,-17.20115 -1.089149,-0.14721 -3.934948,-0.14877 -5.053443,-0.002 -4.867118,0.63526 -9.172632,2.79459 -12.524742,6.2815 -3.102343,3.22709 -5.028087,7.19461 -5.671222,11.68419 -0.179912,1.25592 -0.202976,3.99385 -0.04414,5.2392 1.222737,9.58653 8.538949,16.96864 18.104739,18.26783 1.106034,0.1502 3.713906,0.17468 4.899081,0.046 z m -4.763719,-3.87185 c -1.935674,-0.29946 -3.529482,-0.81157 -5.246816,-1.68589 -4.697791,-2.3917 -7.944015,-6.69253 -9.008796,-11.93549 -0.822143,-4.04822 -0.02615,-8.52072 2.160872,-12.14145 2.428026,-4.01971 6.616877,-6.96143 11.237459,-7.89172 6.48815,-1.30631 13.160988,1.27317 17.125576,6.62012 2.190332,2.95407 3.307657,6.3762 3.312147,10.14442 0.01013,8.59273 -6.322422,15.81277 -14.849734,16.9306 -1.37134,0.17977 -3.420032,0.1622 -4.730708,-0.0406 z m 3.609603,-0.54335 c 4.695456,-0.34695 8.817937,-2.50739 11.731847,-6.14825 5.184279,-6.47762 4.659436,-15.85871 -1.218796,-21.78493 -2.545472,-2.56625 -5.897799,-4.20755 -9.579595,-4.6902 -5.423575,-0.71097 -11.026995,1.47927 -14.544577,5.68509 -4.91741,5.87953 -5.19193,14.16391 -0.672816,20.30401 0.798277,1.08462 2.666324,2.92721 3.725847,3.67509 2.487445,1.75577 5.585994,2.82453 8.663049,2.98804 0.272975,0.0146 0.557231,0.0327 0.631679,0.0405 0.07445,0.007 0.642961,-0.0235 1.263362,-0.0693 z m -2.301123,-1.05349 c -2.468236,-0.29349 -4.093117,-0.75774 -5.808475,-1.65959 -4.615149,-2.42641 -7.596429,-6.75194 -8.230372,-11.94137 -0.147757,-1.20954 -0.06233,-3.35022 0.183391,-4.59534 0.474325,-2.40353 1.465234,-4.58673 2.957854,-6.51681 0.765948,-0.99041 2.281748,-2.45239 3.202992,-3.08924 0.624269,-0.43157 2.376995,-1.46646 2.483628,-1.46646 0.02472,0 0.410307,-0.14618 0.85689,-0.32485 3.117952,-1.24748 7.036889,-1.36167 10.286549,-0.29972 9.698502,3.16932 13.680883,14.71068 7.992502,23.16311 -2.530349,3.75988 -6.58976,6.18762 -11.191639,6.69321 -0.826516,0.0908 -2.132315,0.10859 -2.73332,0.037 z m 0.02174,-1.44869 c 0.02397,-0.86618 0.157903,-1.14991 0.453722,-0.96121 0.129629,0.0827 0.156008,0.23988 0.154937,0.92341 l -0.0013,0.82379 h 0.829482 c 1.401664,0 2.769002,-0.2307 4.328982,-0.73042 0.695948,-0.22292 0.844884,-0.30161 0.806077,-0.42576 -0.206543,-0.66084 -0.409837,-1.68702 -0.363278,-1.83373 0.08976,-0.28277 0.421905,-0.1762 0.599825,0.19247 0.08384,0.17372 0.206838,0.58914 0.273345,0.92317 l 0.120927,0.60736 0.719295,-0.36875 c 1.009578,-0.51753 0.984906,-0.48427 0.684444,-0.92294 -0.58766,-0.85801 -0.776825,-1.43113 -0.50659,-1.53483 0.243577,-0.0936 0.405164,0.0447 0.76246,0.65223 0.603953,1.02682 0.513397,0.98815 1.157892,0.4946 l 0.561678,-0.43014 -0.346343,-0.36459 c -0.532604,-0.56067 -0.736964,-0.86534 -0.736964,-1.09869 0,-0.11738 0.01698,-0.21343 0.03774,-0.21343 0.02076,0 0.100381,-0.0239 0.176943,-0.0533 0.0938,-0.0361 0.346033,0.1627 0.773272,0.60911 l 0.634071,0.66255 0.54485,-0.55737 0.544854,-0.55735 -0.596559,-0.58207 c -0.459105,-0.44797 -0.58958,-0.63141 -0.566265,-0.79624 0.05844,-0.41313 0.387512,-0.32122 1.018168,0.28438 l 0.579549,0.55651 0.455727,-0.61778 c 0.250652,-0.33978 0.456343,-0.64564 0.457093,-0.67971 7.21e-4,-0.0341 -0.387393,-0.24609 -0.862535,-0.47117 -0.754474,-0.3574 -0.860202,-0.43528 -0.83472,-0.61485 0.04902,-0.34552 0.475674,-0.31182 1.296938,0.10243 l 0.717518,0.36191 0.153721,-0.19962 c 0.08455,-0.10974 0.275117,-0.47374 0.42349,-0.80875 l 0.269772,-0.60912 -0.649092,-0.004 c -0.357,-0.002 -0.811523,-0.0341 -1.010052,-0.0693 -0.306237,-0.0543 -0.36096,-0.0977 -0.36096,-0.28656 0,-0.28138 0.302938,-0.33912 1.430279,-0.27267 0.917846,0.0541 0.846473,0.11021 1.12645,-0.88571 0.12824,-0.45619 0.151908,-0.64897 0.0761,-0.61988 -0.361947,0.1389 -1.533202,0.34243 -1.830432,0.31807 -0.304517,-0.025 -0.354899,-0.0608 -0.379008,-0.26919 -0.03284,-0.2839 -0.03331,-0.28371 1.200926,-0.48978 1.36324,-0.22761 1.268245,-0.14483 1.399935,-1.21985 0.154369,-1.26016 0.06855,-3.5502 -0.175931,-4.6948 -0.170741,-0.79937 -0.523193,-2.06269 -0.597517,-2.14171 -0.0172,-0.0182 -0.33741,0.0783 -0.711545,0.2148 -0.555258,0.20251 -0.705273,0.22732 -0.816473,0.13505 -0.165394,-0.13727 -0.17724,-0.39835 -0.02343,-0.51643 0.06204,-0.0477 0.366602,-0.17937 0.676801,-0.29276 0.3102,-0.11344 0.564,-0.24694 0.564,-0.29677 0,-0.14043 -0.919311,-1.86464 -1.053635,-1.97611 -0.09101,-0.0755 -0.231992,-0.0124 -0.593198,0.26537 -0.687294,0.52865 -0.939798,0.62896 -1.122747,0.44602 -0.131343,-0.13134 -0.132235,-0.16687 -0.0089,-0.35508 0.07536,-0.11507 0.386196,-0.3906 0.690725,-0.61235 0.304531,-0.22178 0.55369,-0.43199 0.55369,-0.46717 0,-0.0772 -1.035464,-1.38942 -1.15436,-1.46291 -0.04611,-0.0285 -0.272196,0.19074 -0.502408,0.48718 -0.313156,0.40325 -0.475403,0.53899 -0.644259,0.53899 -0.352191,0 -0.286987,-0.34072 0.180385,-0.94261 0.223346,-0.28762 0.406081,-0.55489 0.406081,-0.59397 0,-0.0794 -0.796081,-0.81189 -1.178353,-1.0841 l -0.247829,-0.17648 -0.170848,0.29316 c -0.09397,0.1612 -0.224904,0.42561 -0.290973,0.58755 -0.07174,0.17581 -0.204342,0.31556 -0.329172,0.34689 -0.497345,0.12483 -0.528179,-0.25824 -0.08061,-1.00149 0.175545,-0.29152 0.302532,-0.57342 0.282193,-0.62641 -0.03977,-0.10359 -1.800607,-1.13407 -1.937913,-1.13407 -0.04542,0 -0.104136,0.26833 -0.130451,0.5963 -0.05429,0.67633 -0.232961,0.95958 -0.49742,0.7886 -0.12601,-0.0814 -0.152393,-0.2166 -0.136401,-0.69865 0.01098,-0.3287 0.06154,-0.67559 0.112528,-0.77086 0.0836,-0.15619 0.02405,-0.19927 -0.606388,-0.4387 -0.384495,-0.14604 -0.808407,-0.29124 -0.942026,-0.32271 l -0.242944,-0.0573 0.05281,0.62986 c 0.0565,0.6739 -0.03081,0.90506 -0.341831,0.90506 -0.235573,0 -0.320797,-0.21979 -0.381884,-0.98485 -0.02939,-0.36794 -0.09918,-0.69727 -0.155113,-0.73183 -0.121612,-0.0753 -1.626129,-0.29345 -1.676356,-0.24322 -0.01926,0.0193 0.04616,0.3524 0.145363,0.74031 0.182736,0.71449 0.149389,0.94885 -0.135018,0.94885 -0.194865,0 -0.310686,-0.22169 -0.497585,-0.95244 -0.09951,-0.38907 -0.231293,-0.7415 -0.292866,-0.78319 -0.125934,-0.0853 -1.56741,-0.0177 -2.593551,0.12162 -1.325411,0.17995 -3.880324,0.94237 -3.880324,1.15797 0,0.10454 0.252724,0.81394 0.408672,1.14712 0.16078,0.34348 0.09261,0.57247 -0.170166,0.57152 -0.22346,-8.1e-4 -0.524211,-0.46758 -0.684279,-1.06201 -0.05645,-0.20964 -0.144733,-0.38113 -0.1962,-0.38113 -0.176941,0 -1.343308,0.72997 -1.343308,0.84072 0,0.061 0.115591,0.25203 0.256868,0.42466 0.428529,0.52357 0.505199,0.71843 0.345498,0.87813 -0.193376,0.19337 -0.354591,0.10211 -0.788048,-0.44629 -0.208237,-0.26343 -0.412297,-0.47897 -0.453466,-0.47897 -0.103588,0 -1.346638,1.02279 -1.343987,1.10584 0.0012,0.037 0.262698,0.24483 0.581145,0.46183 0.64611,0.4403 0.736929,0.57345 0.531367,0.77902 -0.191626,0.19163 -0.419956,0.10929 -1.064527,-0.38403 l -0.536427,-0.41052 -0.533393,0.56747 -0.533396,0.56749 0.523298,0.28076 c 0.658593,0.35338 1.141036,0.79784 1.069203,0.98502 -0.108826,0.28361 -0.341536,0.23777 -1.143863,-0.22527 l -0.8147,-0.4702 -0.19481,0.24432 c -0.359398,0.45073 -0.815701,1.26696 -0.726584,1.29973 0.04852,0.0178 0.372473,0.18334 0.719897,0.3678 0.522779,0.27755 0.631683,0.37406 0.631683,0.55975 0,0.33153 -0.22031,0.32569 -1.037267,-0.0275 l -0.722708,-0.31245 -0.188875,0.41876 c -0.172719,0.38294 -0.442513,1.0809 -0.442513,1.14478 0,0.0146 0.213193,0.0962 0.47376,0.18136 0.724859,0.23691 0.97008,0.38523 0.97008,0.58673 0,0.0996 -0.0673,0.20683 -0.149534,0.23838 -0.127392,0.0489 -0.982865,-0.12968 -1.414145,-0.29516 -0.103493,-0.0397 -0.174885,0.12769 -0.322386,0.75596 -0.104199,0.44384 -0.189456,0.83241 -0.189456,0.86349 0,0.0311 0.384348,0.0564 0.854107,0.0564 0.770566,0 0.863854,0.0182 0.953783,0.18625 0.188105,0.35148 -0.02202,0.44544 -0.996253,0.44544 -0.837167,0 -0.883523,0.0105 -0.935239,0.20303 -0.131077,0.48912 -0.05479,3.13001 0.119646,4.14208 0.183121,1.06244 0.717052,2.88472 0.930892,3.17709 0.117731,0.16096 0.144614,0.15652 0.67607,-0.11183 0.56311,-0.28425 0.775491,-0.29203 0.875262,-0.0321 0.07115,0.18543 -0.228519,0.48183 -0.779561,0.77104 l -0.421937,0.22145 0.41378,0.73264 c 0.227577,0.40294 0.443483,0.73264 0.479791,0.73264 0.03631,0 0.263321,-0.16361 0.504477,-0.36356 0.502089,-0.4163 0.784549,-0.44173 0.827074,-0.0745 0.02214,0.19123 -0.0632,0.317 -0.428597,0.63168 -0.250933,0.21611 -0.456264,0.42552 -0.456286,0.4654 -2.6e-5,0.0399 0.231915,0.35959 0.515424,0.71049 l 0.515469,0.63799 0.138771,-0.21335 c 0.356724,-0.54844 0.754987,-0.90091 0.98736,-0.8738 0.366831,0.0428 0.323691,0.27442 -0.171399,0.92037 -0.252848,0.3299 -0.437777,0.6353 -0.410953,0.67871 0.02683,0.0434 0.284877,0.28346 0.573449,0.53346 l 0.524672,0.45452 0.425419,-0.58659 c 0.443859,-0.61202 0.691929,-0.71591 0.903476,-0.37834 0.07502,0.11974 0.01598,0.26339 -0.284066,0.69114 -0.434414,0.61931 -0.456557,0.73429 -0.175744,0.91278 0.906062,0.57587 1.365153,0.82299 1.460736,0.78632 0.06172,-0.0236 0.280195,-0.36595 0.485502,-0.76057 0.413247,-0.79432 0.554682,-0.95374 0.772086,-0.87033 0.293426,0.11264 0.18786,0.48338 -0.555019,1.94933 -0.04779,0.0944 0.379837,0.29185 1.402311,0.64774 l 0.923826,0.32156 v -0.32943 c 0,-0.48535 0.27314,-1.374 0.451681,-1.46955 0.10383,-0.0556 0.209761,-0.043 0.32059,0.0381 0.16008,0.117 0.160206,0.14586 0.0038,0.87634 -0.08894,0.41542 -0.199456,0.80133 -0.245599,0.85758 -0.126306,0.15396 -0.11813,0.15598 1.725512,0.42661 0.124086,0.0181 0.245905,0.0384 0.270721,0.0448 0.02481,0.005 0.0549,-0.34145 0.06685,-0.77325 z m 2.753151,-0.30588 c -0.323262,-0.3363 0.01565,-0.6227 0.736889,-0.6227 0.212707,0 0.524774,-0.0459 0.693485,-0.10211 0.774926,-0.25791 0.659531,-0.61079 -0.292442,-0.89431 -0.35289,-0.10507 -0.738062,-0.28752 -0.855936,-0.4054 -0.256709,-0.2567 -0.284266,-0.72462 -0.06935,-1.17752 0.363617,-0.76628 1.659836,-0.96569 1.659836,-0.25535 0,0.25807 -0.256911,0.41848 -0.474894,0.29649 -0.210129,-0.11764 -0.502256,0.0493 -0.617632,0.35267 -0.109693,0.28854 0.02545,0.41997 0.529053,0.51446 0.605022,0.11355 1.005325,0.38363 1.218396,0.82219 l 0.198235,0.40803 -0.17842,0.32896 c -0.258141,0.47597 -0.840847,0.74784 -1.726862,0.80571 -0.513378,0.0335 -0.738514,0.014 -0.820358,-0.0711 z m -5.605535,-7.93762 -0.303932,-0.18529 0.04488,-1.41614 c 0.06505,-2.05288 0.4393,-3.25779 1.500173,-4.82993 1.347133,-1.99639 2.860267,-3.37449 4.748088,-4.32445 0.887156,-0.44642 1.502751,-0.60896 2.306301,-0.60896 0.934009,0 0.943264,0.0136 0.938081,1.39 -0.0036,0.94985 -0.03721,1.19121 -0.258954,1.85865 -0.641102,1.92962 -1.775026,3.71566 -3.386555,5.33417 -1.54313,1.5498 -2.959259,2.46508 -4.378146,2.8297 -0.700758,0.18008 -0.845602,0.17435 -1.209933,-0.0478 z m 1.354465,-0.70531 c 1.088064,-0.37435 2.483398,-1.2805 3.534741,-2.29553 0.618581,-0.59719 0.668067,-0.67197 0.626592,-0.94674 -0.03322,-0.22011 0.0037,-0.35023 0.140833,-0.49632 0.235415,-0.25077 0.553446,-0.94631 0.556042,-1.21608 0.0052,-0.54857 -0.494498,-1.25068 -1.11869,-1.57161 -0.282125,-0.14507 -0.44627,-0.16954 -0.811742,-0.12112 -0.425701,0.0564 -1.331271,0.48568 -1.458272,0.69119 -0.03059,0.0495 -0.168558,0.0651 -0.306598,0.0348 -0.221454,-0.0487 -0.288282,-0.003 -0.568109,0.37823 -1.027331,1.40385 -1.600212,3.22511 -1.600212,5.08726 v 0.62515 h 0.256593 c 0.141126,0 0.478096,-0.0762 0.748822,-0.16936 z m 2.374854,-3.51964 c -0.815145,-0.37026 -1.074016,-1.10907 -0.649022,-1.85229 0.262233,-0.45859 0.579715,-0.68661 1.042386,-0.74866 0.537787,-0.0722 0.870781,0.10074 1.188224,0.61656 0.293121,0.47638 0.332883,0.80208 0.165943,1.35928 -0.220786,0.73692 -0.937203,0.9932 -1.747531,0.62511 z m -12.432261,2.17384 c -0.217676,-0.24053 -1.430803,-3.71 -1.367245,-3.91026 0.06155,-0.1939 0.441271,-0.23268 0.555183,-0.0566 0.04015,0.0621 0.298684,0.73336 0.574513,1.49179 l 0.501507,1.37899 0.161274,-0.52171 c 0.354164,-1.1457 0.60275,-1.20482 1.385235,-0.32943 l 0.534859,0.59835 0.05552,-1.22841 c 0.03054,-0.67563 0.09938,-1.31035 0.152985,-1.41051 0.107809,-0.20145 0.497982,-0.24931 0.564999,-0.0693 0.0626,0.16813 -0.07517,3.33674 -0.152857,3.51593 -0.08135,0.18759 -0.349537,0.28335 -0.584643,0.20873 -0.09534,-0.0302 -0.405493,-0.33874 -0.689199,-0.68552 -0.283706,-0.34678 -0.526818,-0.61915 -0.540251,-0.60529 -0.01343,0.0137 -0.129449,0.38813 -0.257817,0.83173 -0.128369,0.44358 -0.284384,0.83889 -0.3467,0.87844 -0.185497,0.11777 -0.391816,0.0851 -0.547368,-0.0868 z m 23.988061,-1.48533 c -0.118949,-0.26608 -0.64622,-2.52347 -0.743008,-3.18099 -0.05792,-0.39347 0.240256,-0.62503 1.179927,-0.91635 0.868508,-0.26926 1.095827,-0.23632 1.095827,0.15878 0,0.19135 -0.08865,0.24388 -0.795198,0.47108 l -0.795196,0.25572 0.06126,0.28612 c 0.0337,0.15736 0.07526,0.30148 0.09239,0.32025 0.01713,0.0188 0.225565,-0.0169 0.46322,-0.0793 1.122939,-0.29496 1.469857,-0.27415 1.469857,0.0881 0,0.22916 -0.09639,0.27935 -0.973802,0.50717 -0.411511,0.10685 -0.763428,0.20951 -0.782036,0.22814 -0.01861,0.0187 0.0364,0.33844 0.122271,0.71068 0.18094,0.78448 0.182081,0.78488 1.146058,0.39923 0.688239,-0.27534 0.883367,-0.26039 0.921695,0.0707 0.02388,0.20617 -0.02985,0.2723 -0.35662,0.43901 -0.574924,0.2933 -1.330393,0.53498 -1.672354,0.53498 -0.254989,0 -0.324009,-0.0466 -0.434276,-0.29328 z m -14.335528,-12.50537 c -0.08215,-0.0908 -0.149512,-0.24304 -0.149717,-0.33839 -1.79e-4,-0.0954 -0.121063,-0.75918 -0.268589,-1.47518 -0.27777,-1.34815 -0.266993,-1.54076 0.08622,-1.54076 0.08587,0 0.341678,0.23349 0.568474,0.51889 0.226793,0.28537 0.654275,0.78282 0.949956,1.10544 l 0.537604,0.58656 -0.166878,-0.85729 c -0.225333,-1.15756 -0.224786,-1.68012 0.0019,-1.80144 0.27695,-0.14822 0.423607,0.0887 0.539762,0.87187 0.05743,0.38718 0.20075,1.14702 0.318505,1.68855 0.117755,0.5415 0.194429,1.03582 0.170392,1.09846 -0.151191,0.39399 -0.820505,0.0599 -1.621578,-0.80951 l -0.638676,-0.69312 0.125346,0.72581 c 0.09077,0.52564 0.09882,0.77538 0.0292,0.90548 -0.119821,0.22391 -0.287897,0.22899 -0.481894,0.0147 z"
         id="path4898"
         inkscape:connector-curvature="0" />
    </g>
  </g>
</svg>
